<?xml version="1.0" encoding="UTF-8"?>
<svg version="1.1" xmlns="http://www.w3.org/2000/svg" width="192" height="192">
<path d="M0 0 C2.70747502 2.19776818 5.25677756 4.49692569 7.625 7.0625 C7.955 3.7625 8.285 0.4625 8.625 -2.9375 C16.215 -2.9375 23.805 -2.9375 31.625 -2.9375 C31.71800107 13.58837942 31.78918422 30.11414915 31.83224869 46.64022732 C31.85278481 54.31533716 31.88073175 61.99028038 31.92675781 69.6652832 C31.96690234 76.36277152 31.99249765 83.06013906 32.00135398 89.75774437 C32.00652259 93.29692025 32.01847793 96.8357509 32.04792023 100.37481499 C32.23871914 124.26818874 31.41288163 145.65232986 14.0234375 163.90234375 C2.9514853 173.87431373 -8.58274652 175.01773963 -22.87744141 174.30517578 C-34.52340332 173.17359356 -44.10703178 165.26520371 -51.48046875 156.69921875 C-55.92198508 150.51772695 -58.98710659 143.53298027 -60.375 136.0625 C-57.10908178 134.38606962 -53.83650893 132.72306656 -50.5625 131.0625 C-49.1693457 130.34707031 -49.1693457 130.34707031 -47.74804688 129.6171875 C-46.85537109 129.16601562 -45.96269531 128.71484375 -45.04296875 128.25 C-44.22078857 127.83105469 -43.3986084 127.41210938 -42.55151367 126.98046875 C-40.375 126.0625 -40.375 126.0625 -37.375 126.0625 C-36.56001438 127.6654053 -35.74810073 129.26987278 -34.9375 130.875 C-34.48503906 131.76832031 -34.03257813 132.66164062 -33.56640625 133.58203125 C-32.375 136.0625 -32.375 136.0625 -31.375 139.0625 C-29.67730766 140.16418984 -29.67730766 140.16418984 -27.375 141.0625 C-25.8590625 141.866875 -25.8590625 141.866875 -24.3125 142.6875 C-18.8214402 144.98526108 -12.76190521 145.02527509 -7.06640625 143.40625 C-1.98737713 141.17877409 1.23973337 138.05891079 3.625 133.0625 C6.78841633 124.47790648 6.9868839 116.12300071 6.625 107.0625 C5.944375 107.784375 5.26375 108.50625 4.5625 109.25 C-2.47726946 116.19117325 -8.93551565 119.01812503 -18.875 119.3125 C-30.72960682 118.98263268 -39.41560044 114.66169392 -47.984375 106.60546875 C-61.39737122 92.33772277 -65.72682884 72.54101561 -65.52734375 53.5234375 C-64.72940039 35.39580112 -59.45940413 16.65117292 -45.76171875 4 C-32.62409163 -6.66491498 -14.5600008 -10.65037095 0 0 Z M-32.625 31.6875 C-33.57806727 33.12230893 -34.49529521 34.58157685 -35.375 36.0625 C-35.79007813 36.72378906 -36.20515625 37.38507812 -36.6328125 38.06640625 C-41.30096111 47.1905149 -41.35650326 61.22873015 -38.3515625 70.94921875 C-36.54997726 75.38766965 -34.51652365 79.41563742 -31.375 83.0625 C-30.715 83.0625 -30.055 83.0625 -29.375 83.0625 C-29.375 83.7225 -29.375 84.3825 -29.375 85.0625 C-23.03878464 88.88813947 -17.77896403 90.30368931 -10.375 89.0625 C-3.89661819 86.48212758 0.97441165 81.79862903 3.78125 75.4453125 C8.53972044 62.90334398 8.55832922 51.90452638 4.625 39.0625 C1.28871403 32.28447075 -3.32882104 27.05523193 -10.375 24.0625 C-19.48180155 22.84637433 -26.72982099 24.4251099 -32.625 31.6875 Z " fill="#05ACB3" transform="translate(157.375,12.9375)"/>
<path d="M0 0 C8.06290813 6.95739056 13.78693975 16.27752919 16.0625 26.75 C4.25920051 35.2046773 4.25920051 35.2046773 -0.9375 37.75 C-3.9375 36.75 -3.9375 36.75 -5.1484375 34.60546875 C-5.53257813 33.72503906 -5.91671875 32.84460937 -6.3125 31.9375 C-9.00808092 26.26301885 -12.17431231 23.24529322 -17.9375 20.75 C-22.88884962 19.98515738 -26.72297553 20.02128532 -31.0625 22.625 C-33.31616363 26.38110605 -33.53431096 28.94590147 -33.6015625 33.25 C-32.64138967 36.86476829 -30.96668374 38.71587246 -27.9375 40.75 C-22.69423367 43.24679349 -17.24651865 45.24860981 -11.81445312 47.29296875 C-1.7790776 51.28398265 7.11018985 56.88733086 11.625 67.0625 C12.08003906 68.04863281 12.53507812 69.03476563 13.00390625 70.05078125 C16.78159137 79.68318132 16.7483361 93.25982244 13.4375 103 C9.26471284 112.32311537 2.77112301 119.27686294 -6.5625 123.5625 C-16.79557096 127.16302497 -27.84400374 126.64916716 -37.9375 122.75 C-49.278649 116.24155697 -57.77630532 106.92509537 -61.6875 94.3359375 C-62.15794826 92.48681447 -62.55664871 90.61963361 -62.9375 88.75 C-59.51857938 85.94026887 -56.03185366 83.39759988 -52.3125 81 C-51.37148438 80.38640625 -50.43046875 79.7728125 -49.4609375 79.140625 C-46.9375 77.75 -46.9375 77.75 -43.9375 77.75 C-43.5971875 78.53503906 -43.256875 79.32007812 -42.90625 80.12890625 C-39.09457902 88.39090584 -34.66801503 95.21818485 -25.9375 98.75 C-21.05294718 99.29008064 -15.04710445 99.7037782 -10.9375 96.75 C-8.59812951 91.43324889 -8.58141674 87.26473861 -9.9375 81.75 C-13.77155067 77.96697282 -18.07145149 76.26763305 -23 74.375 C-37.57712302 68.53788779 -48.80086532 63.91847895 -55.70703125 49.05078125 C-59.92045365 37.74810846 -59.92045365 25.75189154 -55.70703125 14.44921875 C-51.32790137 5.02176219 -45.73499537 -1.49334956 -35.9375 -5.25 C-23.84879232 -9.52378555 -10.37931872 -7.63596344 0 0 Z " fill="#07ADB3" transform="translate(64.9375,14.25)"/>
<path d="M0 0 C0.66 0.33 1.32 0.66 2 1 C-1.57729872 5.66132863 -5.10867301 8.73911534 -10 12 C-10.66 11.67 -11.32 11.34 -12 11 C-10.75323147 9.72599623 -9.5024352 8.45593346 -8.25 7.1875 C-7.55390625 6.47980469 -6.8578125 5.77210937 -6.140625 5.04296875 C-4.18571355 3.17724121 -2.19661447 1.56830358 0 0 Z " fill="#23ADB2" transform="translate(118,12)"/>
<path d="M0 0 C1.175625 0.4640625 1.175625 0.4640625 2.375 0.9375 C6.89851578 2.26335807 11.31431814 2.64811085 16 3 C12.91154332 4.8291543 10.98729251 5.2064877 7.4375 4.75 C6.29087891 4.61851563 6.29087891 4.61851563 5.12109375 4.484375 C3 4 3 4 0 2 C0 1.34 0 0.68 0 0 Z " fill="#34B0B3" transform="translate(130,99)"/>
</svg>
